<svg width="130" height="117" viewBox="0 0 130 117" fill="none" xmlns="http://www.w3.org/2000/svg">
<g clip-path="url(#clip0)">
<g opacity="0.8">
<g opacity="0.64">
<path opacity="0.64" d="M35.29 1.17999C31.25 4.92999 28 10.42 25.71 17H44.87C42.6 10.42 39.33 4.92999 35.29 1.17999Z" fill="white"/>
<path opacity="0.64" d="M25.26 62.49C25.11 62.1 24.97 61.72 24.83 61.33C24.69 60.94 24.47 60.25 24.3 59.7C24.13 59.15 23.91 58.46 23.73 57.83C23.62 57.45 23.52 57.06 23.42 56.67C23.21 55.87 23.02 55.07 22.84 54.25C22.77 53.94 22.71 53.63 22.64 53.32C22.54 52.79 22.41 52.32 22.32 51.74C18.604 54.4806 15.8411 58.3176 14.4203 62.7109C12.9995 67.1042 12.9924 71.8325 14.4 76.23C16.7586 71.0817 20.9464 66.9938 26.15 64.76L26.09 64.62C25.8 63.92 25.53 63.21 25.26 62.49Z" fill="white"/>
<path opacity="0.64" d="M44.7 61.29C45.01 60.42 45.29 59.54 45.56 58.64C45.66 58.32 45.76 58.01 45.85 57.64C46.06 56.88 46.26 56.1 46.45 55.32C46.55 54.88 46.66 54.44 46.76 54C46.92 53.27 47.06 52.54 47.2 51.8C47.9841 47.5379 48.3824 43.2137 48.39 38.88C48.4079 31.6018 47.2634 24.3674 45 17.45H25.55C23.2915 24.385 22.1571 31.6366 22.19 38.93C22.1994 43.4982 22.6414 48.0552 23.51 52.54C23.59 52.95 23.67 53.37 23.76 53.78C23.91 54.49 24.08 55.18 24.25 55.87C24.38 56.38 24.51 56.87 24.65 57.41C24.79 57.95 24.97 58.49 25.13 59.02C25.29 59.55 25.55 60.35 25.78 61.02L26.17 62.09C26.47 62.89 26.78 63.68 27.11 64.45C27.44 65.22 27.63 65.69 27.92 66.29C32.7129 64.7301 37.8771 64.7301 42.67 66.29C42.91 65.78 43.12 65.29 43.34 64.73C43.76 63.78 44.15 62.8 44.52 61.8L44.7 61.29ZM35.29 36C33.9055 36 32.5521 35.5895 31.401 34.8203C30.2499 34.0511 29.3527 32.9579 28.8228 31.6788C28.293 30.3997 28.1544 28.9922 28.4245 27.6344C28.6946 26.2765 29.3613 25.0292 30.3402 24.0503C31.3192 23.0713 32.5665 22.4046 33.9244 22.1345C35.2822 21.8644 36.6897 22.003 37.9688 22.5329C39.2479 23.0627 40.3411 23.9599 41.1103 25.111C41.8795 26.2622 42.29 27.6155 42.29 29C42.29 30.8565 41.5525 32.637 40.2397 33.9498C38.927 35.2625 37.1465 36 35.29 36Z" fill="white"/>
<path opacity="0.64" d="M48.25 51.74C48.19 52.11 48.1 52.46 48.03 52.83C47.92 53.41 47.8 53.98 47.67 54.55C47.54 55.12 47.41 55.64 47.28 56.17C47.15 56.7 46.95 57.47 46.77 58.1L46.44 59.2C46.19 60 45.94 60.79 45.67 61.56L45.52 61.96C45.17 62.91 44.81 63.85 44.43 64.76C49.6299 66.9994 53.8159 71.0856 56.18 76.23C56.8621 74.0148 57.1994 71.7078 57.18 69.39C57.168 65.956 56.3544 62.5722 54.8041 59.508C53.2538 56.4438 51.0095 53.7839 48.25 51.74V51.74Z" fill="white"/>
<path opacity="0.64" d="M30.17 75.21H30.68L32.02 69.1H31.51L30.17 75.21Z" fill="white"/>
<path opacity="0.64" d="M30.77 66.59L30.1 66.73V68.1H30.77V66.59Z" fill="white"/>
<path opacity="0.64" d="M31.27 68.1H32.19V66.34L31.27 66.49V68.1Z" fill="white"/>
<path opacity="0.64" d="M33.42 75.21H33.92L34.37 69.1H33.87L33.42 75.21Z" fill="white"/>
<path opacity="0.64" d="M33.62 66.18C33.31 66.18 33 66.25 32.69 66.28V68.1H33.62V66.18Z" fill="white"/>
<path opacity="0.64" d="M34.12 68.1H35V66.1C34.69 66.1 34.39 66.1 34.08 66.1L34.12 68.1Z" fill="white"/>
<path opacity="0.64" d="M36.22 69.1L36.66 75.21H37.16L36.72 69.1H36.22Z" fill="white"/>
<path opacity="0.64" d="M36.46 66.16C36.16 66.16 35.85 66.16 35.54 66.16V68.16H36.46V66.16Z" fill="white"/>
<path opacity="0.64" d="M37 68.1H37.93V66.28C37.62 66.28 37.31 66.2 37 66.18V68.1Z" fill="white"/>
<path opacity="0.64" d="M38.56 69.1L39.9 75.21H40.41L39.07 69.1H38.56Z" fill="white"/>
<path opacity="0.64" d="M39.31 66.49L38.39 66.34V68.1H39.31V66.49Z" fill="white"/>
<path opacity="0.64" d="M39.81 68.1H40.48V66.73L39.81 66.59V68.1Z" fill="white"/>
</g>
<g opacity="0.64">
<path opacity="0.64" d="M110.06 67.57C110.13 67.4746 110.165 67.3582 110.16 67.24C110.148 67.1516 110.128 67.0645 110.1 66.98C110.1 66.98 110.1 66.98 110.1 66.98C110.054 66.8835 109.997 66.7929 109.93 66.71V66.71C109.853 66.6168 109.766 66.5329 109.67 66.46H109.62C109.498 66.362 109.367 66.275 109.23 66.2C109.018 66.0876 108.793 66.0003 108.56 65.94C108.361 65.8853 108.156 65.8584 107.95 65.86H107.64H107.45H107.38L107.21 65.94C107.151 65.9722 107.1 66.0165 107.06 66.07C106.992 66.1553 106.953 66.2607 106.95 66.37V66.5C107.036 66.7352 107.169 66.9504 107.341 67.1326C107.513 67.3148 107.72 67.4602 107.95 67.56C108.266 67.7582 108.631 67.8641 109.004 67.8659C109.376 67.8677 109.742 67.7652 110.06 67.57V67.57ZM108.32 66.84L107.85 66.34C107.839 66.3282 107.83 66.3143 107.824 66.2991C107.819 66.2839 107.816 66.2677 107.816 66.2515C107.817 66.2352 107.82 66.2192 107.827 66.2044C107.834 66.1895 107.843 66.1762 107.855 66.165C107.867 66.1538 107.881 66.1451 107.896 66.1393C107.911 66.1335 107.927 66.1308 107.944 66.1313C107.96 66.1317 107.976 66.1354 107.991 66.142C108.005 66.1487 108.019 66.1582 108.03 66.17L108.47 66.63L109.54 66.72C109.556 66.7197 109.572 66.7231 109.587 66.7298C109.602 66.7365 109.615 66.7465 109.626 66.7589C109.636 66.7714 109.644 66.786 109.648 66.8017C109.652 66.8175 109.653 66.834 109.65 66.85C109.65 66.8653 109.647 66.8805 109.641 66.8945C109.635 66.9086 109.626 66.9212 109.614 66.9315C109.603 66.9419 109.59 66.9498 109.575 66.9547C109.561 66.9596 109.545 66.9614 109.53 66.96V66.96L108.42 66.88C108.383 66.8772 108.348 66.8632 108.32 66.84V66.84Z" fill="white"/>
<path opacity="0.64" d="M120.26 67.2C117.957 63.1996 114.597 59.9096 110.55 57.69C109.485 59.0384 108.132 60.1323 106.591 60.8917C105.05 61.6512 103.358 62.0571 101.64 62.08H101.48C98.8405 62.0878 96.2794 61.1835 94.23 59.52L93.55 59.85C89.48 61.91 84 66.17 80.76 74.72L80.71 74.84C80.5271 75.3686 80.4868 75.936 80.5932 76.4851C80.6997 77.0343 80.9491 77.5456 81.3162 77.9675C81.6834 78.3895 82.1554 78.7071 82.6845 78.8884C83.2136 79.0696 83.7812 79.1082 84.33 79C84.8582 78.8909 85.3504 78.6505 85.7611 78.3009C86.1718 77.9514 86.4879 77.504 86.68 77C87.7954 73.8338 89.6144 70.9618 92 68.6V68.6C92.31 68.3 92.62 68.02 92.94 67.75C93.0421 67.6651 93.1738 67.6243 93.306 67.6365C93.4382 67.6487 93.5601 67.7129 93.645 67.815C93.7299 67.9171 93.7707 68.0488 93.7585 68.181C93.7463 68.3132 93.6821 68.4351 93.58 68.52C93.31 68.74 93.06 68.98 92.8 69.22L91.8 81.77H97.68C97.8126 81.77 97.9398 81.8227 98.0336 81.9164C98.1273 82.0102 98.18 82.1374 98.18 82.27V84.41C98.18 84.5426 98.1273 84.6698 98.0336 84.7636C97.9398 84.8573 97.8126 84.91 97.68 84.91H96.17V89.33H97.66C97.7926 89.33 97.9198 89.3827 98.0136 89.4765C98.1073 89.5702 98.16 89.6974 98.16 89.83V97.68C98.2717 97.3797 98.3489 97.0677 98.39 96.75L100.3 84.47C100.401 83.9758 100.665 83.5299 101.05 83.2039C101.435 82.8778 101.918 82.6905 102.422 82.6721C102.926 82.6536 103.422 82.8051 103.829 83.1021C104.237 83.3991 104.533 83.8245 104.67 84.31L107.08 97.31C107.258 98.3361 107.837 99.2494 108.688 99.8494C109.539 100.449 110.594 100.687 111.62 100.51C112.644 100.329 113.555 99.7501 114.153 98.8991C114.751 98.0481 114.987 96.9948 114.81 95.97L111.9 74.15C110.025 74.4741 108.131 74.6812 106.23 74.77H106C104.929 74.7304 103.915 74.2802 103.167 73.5127C102.419 72.7452 101.996 71.7193 101.984 70.6479C101.973 69.5765 102.374 68.5417 103.105 67.7583C103.836 66.9748 104.84 66.5027 105.91 66.44H106.35V66.38C106.344 66.3469 106.344 66.3131 106.35 66.28C106.345 66.2134 106.345 66.1466 106.35 66.08C106.386 65.9604 106.443 65.8484 106.52 65.75C106.848 65.4731 107.251 65.2988 107.678 65.2491C108.105 65.1993 108.537 65.2761 108.92 65.47C109.061 65.5197 109.198 65.5799 109.33 65.65C109.503 65.7415 109.667 65.8486 109.82 65.97L109.94 66.09H110.29C110.08 65.8 109.85 65.5 109.61 65.2C109.56 65.1506 109.522 65.0914 109.497 65.0262C109.471 64.961 109.46 64.8912 109.464 64.8214C109.467 64.7516 109.485 64.6832 109.517 64.6208C109.548 64.5584 109.592 64.5032 109.646 64.4589C109.701 64.4147 109.763 64.3822 109.831 64.3637C109.898 64.3452 109.969 64.3411 110.038 64.3516C110.107 64.362 110.173 64.3869 110.232 64.4245C110.291 64.4621 110.341 64.5117 110.38 64.57C110.76 65.03 111.1 65.5 111.38 65.92C111.848 65.8539 112.312 65.7637 112.77 65.65C112.903 65.6169 113.043 65.6377 113.16 65.7081C113.277 65.7784 113.362 65.8924 113.395 66.025C113.428 66.1576 113.407 66.298 113.337 66.4152C113.267 66.5324 113.153 66.6169 113.02 66.65C112.196 66.8456 111.361 66.9958 110.52 67.1C110.52 67.1 110.52 67.1 110.52 67.1C110.52 67.1 110.52 67.19 110.52 67.24C110.52 67.29 110.52 67.24 110.52 67.32V68.39C110.491 68.6177 110.413 68.8362 110.29 69.03L110.23 69.09C110.665 70.2493 110.759 71.5091 110.5 72.72C110.444 72.9714 110.353 73.2137 110.23 73.44C113.215 73.0743 116.14 72.3213 118.93 71.2C119.275 71.0435 119.583 70.8155 119.833 70.531C120.083 70.2465 120.269 69.9121 120.38 69.55C120.53 69.1726 120.597 68.7674 120.576 68.3619C120.555 67.9565 120.447 67.5602 120.26 67.2V67.2Z" fill="white"/>
<path opacity="0.64" d="M105.94 67.44C105.384 67.4523 104.841 67.6102 104.365 67.898C103.889 68.1858 103.496 68.5935 103.227 69.0803C102.958 69.5671 102.821 70.116 102.83 70.6722C102.84 71.2284 102.995 71.7724 103.28 72.25C103.569 72.7301 103.981 73.1242 104.473 73.3915C104.965 73.6588 105.52 73.7894 106.08 73.77H106.19L108.04 73.65C108.88 72.65 108.79 70.51 108.42 69.36C108.137 69.2902 107.862 69.1896 107.6 69.06C107.268 68.9231 106.978 68.7014 106.758 68.4171C106.539 68.1328 106.398 67.7959 106.35 67.44V67.44H105.94Z" fill="white"/>
<path opacity="0.64" d="M109 69.71C109.045 69.9111 109.079 70.1148 109.1 70.32L110.17 70.21C110.136 70.0072 110.089 69.8068 110.03 69.61L109 69.71Z" fill="white"/>
<path opacity="0.64" d="M110.29 71.31L109.19 71.43C109.19 71.63 109.19 71.84 109.19 72.05L110.3 71.92C110.307 71.7166 110.304 71.513 110.29 71.31V71.31Z" fill="white"/>
<path opacity="0.64" d="M110.29 71.06C110.29 70.86 110.29 70.65 110.23 70.45L109.16 70.56C109.16 70.76 109.16 70.97 109.16 71.17L110.29 71.06Z" fill="white"/>
<path opacity="0.64" d="M110 73L108.91 73.1C108.852 73.2554 108.782 73.4059 108.7 73.55C109.04 73.55 109.373 73.51 109.7 73.43C109.821 73.3024 109.922 73.1574 110 73V73Z" fill="white"/>
<path opacity="0.64" d="M108.8 68.94C108.8 68.94 108.8 68.94 108.8 69.02C108.8 69.16 108.89 69.3 108.94 69.47L109.94 69.36C109.886 69.1903 109.816 69.0262 109.73 68.87L108.8 68.94Z" fill="white"/>
<path opacity="0.64" d="M110.17 72.54C110.17 72.42 110.17 72.3 110.24 72.17L109.11 72.3C109.082 72.4923 109.042 72.6826 108.99 72.87L110.1 72.77C110.13 72.69 110.15 72.61 110.17 72.54Z" fill="white"/>
<path opacity="0.64" d="M97.15 82.77H85.1V83.91H97.15V82.77Z" fill="white"/>
<path opacity="0.64" d="M95.67 84.91H94.81V89.33H95.67V84.91Z" fill="white"/>
<path opacity="0.64" d="M97.15 90.33H85.1V103.96H97.15V90.33Z" fill="white"/>
<path opacity="0.64" d="M87.45 84.91H86.59V89.33H87.45V84.91Z" fill="white"/>
<path opacity="0.64" d="M94.31 89.33V84.91H91.52L91.15 89.33H94.31Z" fill="white"/>
<path opacity="0.64" d="M90.91 50.64C90.936 52.6728 91.5471 54.655 92.6703 56.3496C93.7934 58.0442 95.381 59.3793 97.2431 60.1952C99.1052 61.011 101.163 61.2732 103.17 60.9502C105.177 60.6272 107.049 59.7328 108.561 58.3739C110.073 57.015 111.162 55.2493 111.696 53.2879C112.231 51.3266 112.19 49.2526 111.577 47.3143C110.964 45.3759 109.805 43.6553 108.24 42.3581C106.674 41.0609 104.768 40.2422 102.75 40V41.46C102.751 41.6065 102.712 41.7506 102.636 41.876C102.56 42.0014 102.45 42.1032 102.32 42.17C102.134 42.264 101.928 42.312 101.72 42.31C101.46 42.3114 101.204 42.2423 100.98 42.11C100.857 42.0416 100.756 41.9414 100.685 41.82C100.615 41.6985 100.578 41.5603 100.58 41.42V39.96C97.9155 40.185 95.4356 41.4126 93.6408 43.3948C91.846 45.377 90.8701 47.9663 90.91 50.64V50.64ZM101.91 45.64C110.34 45.8 110.91 48.77 110.83 52.42C110.75 56.07 106.63 59.96 101.64 59.86C96.65 59.76 92.64 55.72 92.74 52.07C92.84 48.42 93.09 45.51 101.93 45.68L101.91 45.64Z" fill="white"/>
<path opacity="0.64" d="M95.15 56.08C95.1907 56.1179 95.2443 56.139 95.3 56.139C95.3557 56.139 95.4093 56.1179 95.45 56.08C95.4809 56.0534 95.5038 56.0187 95.5162 55.9799C95.5285 55.941 95.5299 55.8995 95.52 55.86C94.81 53.16 94.75 50.61 97.16 48.21C97.7 47.67 96.93 46.73 96.23 47.05C94.14 47.97 93.68 49.96 93.63 52.15C93.6555 53.5986 94.1941 54.9912 95.15 56.08V56.08Z" fill="white"/>
<path opacity="0.64" d="M102.05 41.74C102.104 41.7171 102.15 41.6777 102.18 41.6274C102.211 41.5772 102.225 41.5186 102.22 41.46L102.29 38.46C102.132 38.5117 101.966 38.5387 101.8 38.54C101.568 38.5416 101.337 38.501 101.12 38.42L101.05 41.42C101.051 41.4736 101.068 41.5256 101.098 41.5699C101.128 41.6142 101.171 41.6489 101.22 41.67C101.343 41.7469 101.482 41.7933 101.627 41.8055C101.771 41.8177 101.916 41.7952 102.05 41.74V41.74Z" fill="white"/>
</g>
<path opacity="0.64" d="M35.29 33.96C38.0349 33.96 40.26 31.7349 40.26 28.99C40.26 26.2452 38.0349 24.02 35.29 24.02C32.5452 24.02 30.32 26.2452 30.32 28.99C30.32 31.7349 32.5452 33.96 35.29 33.96Z" fill="white"/>
</g>
<g opacity="0.21">
<path opacity="0.21" d="M64.13 82.77H56.09V85.93H64.13V82.77Z" fill="#D4D4D4"/>
</g>
<g opacity="0.21">
<path opacity="0.21" d="M84.6 105C84.4682 104.997 84.3425 104.944 84.2493 104.851C84.1561 104.757 84.1026 104.632 84.1 104.5V103.5H51.42C50.9267 103.5 50.4536 103.304 50.1048 102.955C49.756 102.606 49.56 102.133 49.56 101.64C49.56 101.147 49.756 100.674 50.1048 100.325C50.4536 99.9759 50.9267 99.78 51.42 99.78H70.42C70.5414 99.793 70.6642 99.7804 70.7804 99.7429C70.8966 99.7054 71.0036 99.6438 71.0945 99.5622C71.1853 99.4807 71.258 99.3808 71.3077 99.2693C71.3574 99.1578 71.3831 99.0371 71.3831 98.915C71.3831 98.7929 71.3574 98.6721 71.3077 98.5606C71.258 98.4491 71.1853 98.3493 71.0945 98.2677C71.0036 98.1861 70.8966 98.1245 70.7804 98.087C70.6642 98.0495 70.5414 98.0369 70.42 98.05H36C35.529 98.0155 35.0884 97.804 34.7669 97.458C34.4454 97.1121 34.2667 96.6573 34.2667 96.185C34.2667 95.7127 34.4454 95.2579 34.7669 94.9119C35.0884 94.566 35.529 94.3545 36 94.32H62C62.2281 94.32 62.4468 94.2294 62.6081 94.0681C62.7694 93.9068 62.86 93.688 62.86 93.46C62.86 93.2319 62.7694 93.0131 62.6081 92.8519C62.4468 92.6906 62.2281 92.6 62 92.6H38.17C37.6767 92.6 37.2036 92.404 36.8548 92.0552C36.506 91.7064 36.31 91.2333 36.31 90.74V90.43H19.42C19.2874 90.43 19.1602 90.3773 19.0664 90.2835C18.9727 90.1897 18.92 90.0626 18.92 89.93V86.93H16.58C16.4474 86.93 16.3202 86.8773 16.2264 86.7835C16.1327 86.6897 16.08 86.5626 16.08 86.43C16.08 86.2974 16.1327 86.1702 16.2264 86.0764C16.3202 85.9826 16.4474 85.93 16.58 85.93H18.92V82.77H16.58C16.4474 82.77 16.3202 82.7173 16.2264 82.6235C16.1327 82.5297 16.08 82.4026 16.08 82.27C16.08 82.1374 16.1327 82.0102 16.2264 81.9164C16.3202 81.8226 16.4474 81.77 16.58 81.77H64.13V31H48.94C49.2333 33.6566 49.3835 36.3272 49.39 39C49.373 42.9239 49.0385 46.84 48.39 50.71C51.3981 52.8265 53.8562 55.6318 55.5593 58.8918C57.2624 62.1518 58.1609 65.7719 58.18 69.45C58.1903 72.3267 57.6717 75.1808 56.65 77.87C56.6151 77.9666 56.5512 78.0501 56.4671 78.1092C56.383 78.1682 56.2828 78.1999 56.18 78.2C56.0801 78.1987 55.9829 78.1675 55.901 78.1105C55.819 78.0534 55.7559 77.9731 55.72 77.88C54.6734 75.1719 53.098 72.6993 51.0858 70.6064C49.0736 68.5135 46.6649 66.8422 44 65.69C43.79 66.16 43.59 66.69 43.37 67.1C43.3292 67.1853 43.2656 67.2575 43.1861 67.3088C43.1066 67.36 43.0145 67.3881 42.92 67.39C42.8672 67.4005 42.8128 67.4005 42.76 67.39C42.33 67.25 41.9 67.13 41.47 67.02V68.54L44.04 75.54C44.0725 75.6138 44.0859 75.6947 44.0789 75.7751C44.0719 75.8555 44.0448 75.9328 44 76C43.9541 76.0659 43.8927 76.1195 43.8212 76.1561C43.7497 76.1928 43.6703 76.2112 43.59 76.21H27C26.9197 76.2112 26.8403 76.1928 26.7688 76.1561C26.6973 76.1195 26.6359 76.0659 26.59 76C26.5419 75.9346 26.5112 75.8581 26.5007 75.7777C26.4902 75.6973 26.5003 75.6155 26.53 75.54L29.1 68.54V67C28.67 67.11 28.24 67.23 27.81 67.37C27.6955 67.4081 27.571 67.4027 27.4603 67.3547C27.3496 67.3067 27.2604 67.2196 27.21 67.11C26.98 66.66 26.78 66.17 26.57 65.69C23.9052 66.8313 21.4935 68.4903 19.4748 70.5708C17.456 72.6513 15.8705 75.112 14.81 77.81C14.7752 77.9039 14.7125 77.985 14.6303 78.0422C14.548 78.0994 14.4502 78.13 14.35 78.13C14.2503 78.1186 14.1551 78.0825 14.0729 78.0248C13.9908 77.9672 13.9245 77.8899 13.88 77.8C12.8589 75.1106 12.3403 72.2566 12.35 69.38C12.3652 65.7001 13.2632 62.0777 14.9684 58.8168C16.6737 55.556 19.1365 52.7518 22.15 50.64C21.5018 46.7699 21.1674 42.8539 21.15 38.93C21.1214 31.5552 22.2692 24.2232 24.55 17.21C17.7476 20.1335 11.8606 24.839 7.51 30.83C3.07354 37.2188 0.490953 44.7104 0.0479662 52.4759C-0.39502 60.2414 1.31886 67.9781 5 74.83C9 82.05 15.09 87.83 21.22 93.41C28.22 99.73 39.9 122.77 73.01 114.25C80.4433 112.335 87.511 109.209 93.93 105H84.6Z" fill="#D4D4D4"/>
</g>
<g opacity="0.21">
<path opacity="0.21" d="M35 66.12C34.69 66.12 34.39 66.12 34.08 66.12V68.1H35V66.12Z" fill="#D4D4D4"/>
</g>
<g opacity="0.21">
<path opacity="0.21" d="M32.02 69.1H31.51L30.17 75.21H30.68L32.02 69.1Z" fill="#D4D4D4"/>
</g>
<g opacity="0.21">
<path opacity="0.21" d="M30.1 66.73V68.1H30.77V66.59L30.1 66.73Z" fill="#D4D4D4"/>
</g>
<g opacity="0.21">
<path opacity="0.21" d="M32.19 66.34L31.27 66.49V68.1H32.19V66.34Z" fill="#D4D4D4"/>
</g>
<g opacity="0.21">
<path opacity="0.21" d="M46.04 82.77H38V85.93H46.04V82.77Z" fill="#D4D4D4"/>
</g>
<g opacity="0.21">
<path opacity="0.21" d="M55.09 82.77H47.05V85.93H55.09V82.77Z" fill="#D4D4D4"/>
</g>
<g opacity="0.21">
<path opacity="0.21" d="M37 82.77H28.96V85.93H37V82.77Z" fill="#D4D4D4"/>
</g>
<g opacity="0.21">
<path opacity="0.21" d="M27.96 82.77H19.92V85.93H27.96V82.77Z" fill="#D4D4D4"/>
</g>
<g opacity="0.21">
<path opacity="0.21" d="M34.37 69.1H33.87L33.42 75.21H33.92L34.37 69.1Z" fill="#D4D4D4"/>
</g>
<g opacity="0.21">
<path opacity="0.21" d="M51.63 25.58L55.29 21.92H47.97L51.63 25.58Z" fill="#D4D4D4"/>
</g>
<g opacity="0.21">
<path opacity="0.21" d="M48.73 29.19C48.73 29.44 48.81 29.69 48.84 29.95H55.29L51.63 26.29L48.73 29.19Z" fill="#D4D4D4"/>
</g>
<g opacity="0.21">
<path opacity="0.21" d="M48.64 28.57L51.28 25.93L47.39 22.05C47.9158 24.201 48.333 26.3771 48.64 28.57V28.57Z" fill="#D4D4D4"/>
</g>
<g opacity="0.21">
<path opacity="0.21" d="M60.12 25.58L63.78 21.92H56.46L60.12 25.58Z" fill="#D4D4D4"/>
</g>
<g opacity="0.21">
<path opacity="0.21" d="M64.13 22.27L60.47 25.93L64.13 29.59V22.27Z" fill="#D4D4D4"/>
</g>
<g opacity="0.21">
<path opacity="0.21" d="M56.46 29.95H63.78L60.12 26.29L56.46 29.95Z" fill="#D4D4D4"/>
</g>
<g opacity="0.21">
<path opacity="0.21" d="M55.8713 22.0501L51.9822 25.9392L55.8713 29.8283L59.7604 25.9392L55.8713 22.0501Z" fill="#D4D4D4"/>
</g>
<g opacity="0.21">
<path opacity="0.21" d="M40.48 66.73L39.81 66.59V68.1H40.48V66.73Z" fill="#D4D4D4"/>
</g>
<g opacity="0.21">
<path opacity="0.21" d="M35.54 66.12V68.12H36.46V66.16C36.16 66.14 35.85 66.12 35.54 66.12Z" fill="#D4D4D4"/>
</g>
<g opacity="0.21">
<path opacity="0.21" d="M37.89 66.28C37.58 66.28 37.27 66.2 36.96 66.18V68.1H37.89V66.28Z" fill="#D4D4D4"/>
</g>
<g opacity="0.21">
<path opacity="0.21" d="M37.16 75.21L36.72 69.1H36.22L36.66 75.21H37.16Z" fill="#D4D4D4"/>
</g>
<g opacity="0.21">
<path opacity="0.21" d="M40.41 75.21L39.07 69.1H38.56L39.9 75.21H40.41Z" fill="#D4D4D4"/>
</g>
<g opacity="0.21">
<path opacity="0.21" d="M39.31 66.49L38.39 66.34V68.1H39.31V66.49Z" fill="#D4D4D4"/>
</g>
<g opacity="0.21">
<path opacity="0.21" d="M32.69 66.28V68.1H33.62V66.18C33.31 66.2 33 66.25 32.69 66.28Z" fill="#D4D4D4"/>
</g>
<g opacity="0.21">
<path opacity="0.21" d="M73.16 47.74L69.5 51.4L73.16 55.06V47.74Z" fill="#D4D4D4"/>
</g>
<g opacity="0.21">
<path opacity="0.21" d="M73.16 56.23L69.5 59.89L73.16 63.55V56.23Z" fill="#D4D4D4"/>
</g>
<g opacity="0.21">
<path opacity="0.21" d="M73.16 39.25L69.5 42.91L73.16 46.57V39.25Z" fill="#D4D4D4"/>
</g>
<g opacity="0.21">
<path opacity="0.21" d="M73.16 30.95H72.97L69.5 34.4199L73.16 38.08V30.95Z" fill="#D4D4D4"/>
</g>
<g opacity="0.21">
<path opacity="0.21" d="M69.1395 43.2616L65.2504 47.1507L69.1395 51.0398L73.0285 47.1507L69.1395 43.2616Z" fill="#D4D4D4"/>
</g>
<g opacity="0.21">
<path opacity="0.21" d="M73.16 73.2L69.5 76.86L73.16 80.52V73.2Z" fill="#D4D4D4"/>
</g>
<g opacity="0.21">
<path opacity="0.21" d="M69.1361 60.2383L65.247 64.1274L69.1361 68.0165L73.0252 64.1274L69.1361 60.2383Z" fill="#D4D4D4"/>
</g>
<g opacity="0.21">
<path opacity="0.21" d="M69.1428 51.755L65.2537 55.644L69.1428 59.5331L73.0319 55.644L69.1428 51.755Z" fill="#D4D4D4"/>
</g>
<g opacity="0.21">
<path opacity="0.21" d="M69.1395 68.7316L65.2504 72.6207L69.1395 76.5098L73.0285 72.6207L69.1395 68.7316Z" fill="#D4D4D4"/>
</g>
<g opacity="0.21">
<path opacity="0.21" d="M65.48 29.95H72.45L68.97 26.46L65.48 29.95Z" fill="#D4D4D4"/>
</g>
<g opacity="0.21">
<path opacity="0.21" d="M73.16 64.72L69.5 68.38L73.16 72.03V64.72Z" fill="#D4D4D4"/>
</g>
<g opacity="0.21">
<path opacity="0.21" d="M65.13 29.59L68.61 26.11L65.13 22.63V29.59Z" fill="#D4D4D4"/>
</g>
<g opacity="0.21">
<path opacity="0.21" d="M65.13 81.77H73.16V81.23L69.14 77.22L65.13 81.23V81.77Z" fill="#D4D4D4"/>
</g>
<g opacity="0.21">
<path opacity="0.21" d="M73.19 82.77H65.13V85.93H73.19V82.77Z" fill="#D4D4D4"/>
</g>
<g opacity="0.21">
<path opacity="0.21" d="M65.13 72.03L68.79 68.38L65.13 64.72V72.03Z" fill="#D4D4D4"/>
</g>
<g opacity="0.21">
<path opacity="0.21" d="M65.13 63.55L68.79 59.89L65.13 56.23V63.55Z" fill="#D4D4D4"/>
</g>
<g opacity="0.21">
<path opacity="0.21" d="M65.13 38.08L68.79 34.4199L65.31 30.95H65.13V38.08Z" fill="#D4D4D4"/>
</g>
<g opacity="0.21">
<path opacity="0.21" d="M65.13 46.57L68.79 42.91L65.13 39.25V46.57Z" fill="#D4D4D4"/>
</g>
<g opacity="0.21">
<path opacity="0.21" d="M65.13 55.06L68.79 51.4L65.13 47.74V55.06Z" fill="#D4D4D4"/>
</g>
<g opacity="0.21">
<path opacity="0.21" d="M65.13 80.52L68.79 76.86L65.13 73.2V80.52Z" fill="#D4D4D4"/>
</g>
<g opacity="0.21">
<path opacity="0.21" d="M128.73 45.61C127.15 33.78 118.82 22.47 107.22 19.61C96.34 17 85 21.83 73.8 20.85C65 20.08 57 15.78 48.32 14.22C47.13 14.01 45.92 13.87 44.71 13.77C45.6664 16.0969 46.4648 18.4856 47.1 20.92H64.7H64.76C64.8427 20.9398 64.9186 20.9812 64.98 21.04L73.6 29.65C73.6394 29.6378 73.6813 29.6361 73.7216 29.6448C73.7618 29.6536 73.7992 29.6726 73.83 29.7C73.8521 29.7361 73.8638 29.7776 73.8638 29.82C73.8638 29.8623 73.8521 29.9038 73.83 29.94L73.96 30.06C74.0056 30.1066 74.0428 30.1607 74.07 30.22C74.0803 30.2862 74.0803 30.3537 74.07 30.42V81.77H75.07C75.2026 81.77 75.3298 81.8226 75.4236 81.9164C75.5173 82.0102 75.57 82.1374 75.57 82.27C75.57 82.4026 75.5173 82.5297 75.4236 82.6235C75.3298 82.7173 75.2026 82.77 75.07 82.77H74.07V85.93H75.07C75.2026 85.93 75.3298 85.9826 75.4236 86.0764C75.5173 86.1702 75.57 86.2974 75.57 86.43C75.57 86.5626 75.5173 86.6897 75.4236 86.7835C75.3298 86.8773 75.2026 86.93 75.07 86.93H74.07V89.93C74.07 90.0626 74.0173 90.1897 73.9236 90.2835C73.8298 90.3773 73.7026 90.43 73.57 90.43H37.31V90.74C37.31 90.968 37.4006 91.1868 37.5619 91.3481C37.7232 91.5093 37.9419 91.6 38.17 91.6H61.94C62.4333 91.6 62.9064 91.7959 63.2552 92.1447C63.604 92.4936 63.8 92.9667 63.8 93.46C63.8 93.9533 63.604 94.4264 63.2552 94.7752C62.9064 95.124 62.4333 95.32 61.94 95.32H36C35.7866 95.3429 35.5893 95.444 35.4459 95.6036C35.3025 95.7633 35.2231 95.9703 35.2231 96.185C35.2231 96.3996 35.3025 96.6066 35.4459 96.7663C35.5893 96.926 35.7866 97.027 36 97.05H70.42C70.6764 97.0312 70.9339 97.0655 71.1765 97.1507C71.419 97.2359 71.6414 97.3702 71.8297 97.5452C72.018 97.7202 72.1682 97.9322 72.2709 98.1679C72.3736 98.4036 72.4267 98.6579 72.4267 98.915C72.4267 99.172 72.3736 99.4264 72.2709 99.662C72.1682 99.8977 72.018 100.11 71.8297 100.285C71.6414 100.46 71.419 100.594 71.1765 100.679C70.9339 100.764 70.6764 100.799 70.42 100.78H51.42C51.1919 100.78 50.9732 100.871 50.8119 101.032C50.6506 101.193 50.56 101.412 50.56 101.64C50.56 101.868 50.6506 102.087 50.8119 102.248C50.9732 102.409 51.1919 102.5 51.42 102.5H84.1V89.83C84.1 89.6973 84.1527 89.5702 84.2464 89.4764C84.3402 89.3826 84.4674 89.33 84.6 89.33H86.09V84.91H84.6C84.4674 84.91 84.3402 84.8573 84.2464 84.7635C84.1527 84.6697 84.1 84.5426 84.1 84.41V82.27C84.1 82.1374 84.1527 82.0102 84.2464 81.9164C84.3402 81.8226 84.4674 81.77 84.6 81.77H90.78L91.78 70.34C89.9852 72.3964 88.5912 74.7706 87.67 77.34C87.4188 78.0155 86.998 78.615 86.4481 79.0809C85.8982 79.5467 85.2376 79.8632 84.53 80C84.2563 80.0513 83.9785 80.0781 83.7 80.08C83.0342 80.0792 82.3783 79.9189 81.7871 79.6127C81.1959 79.3065 80.6866 78.8631 80.3019 78.3198C79.9171 77.7764 79.668 77.1488 79.5755 76.4895C79.483 75.8301 79.5497 75.1582 79.77 74.53V74.38C83.14 65.52 88.87 61.1 93.1 59L93.42 58.84C92.197 57.6449 91.2544 56.1933 90.66 54.59L89.66 54.37C89.3094 54.2971 88.9905 54.1161 88.7483 53.8523C88.5061 53.5886 88.3528 53.2555 88.31 52.9L88.13 51.61C88.0862 51.2565 88.1508 50.8981 88.315 50.582C88.4793 50.266 88.7356 50.0072 89.05 49.84L89.97 49.37C90.2364 46.6645 91.4502 44.1401 93.397 42.2427C95.3439 40.3452 97.8986 39.1967 100.61 39V38.25C100.324 38.0563 100.092 37.7917 99.9385 37.4819C99.7848 37.1722 99.714 36.8279 99.7331 36.4826C99.7522 36.1373 99.8605 35.8029 100.047 35.512C100.234 35.2211 100.493 34.9836 100.8 34.8227C101.106 34.6618 101.448 34.583 101.794 34.594C102.139 34.605 102.476 34.7055 102.771 34.8855C103.067 35.0656 103.31 35.3191 103.478 35.6213C103.646 35.9236 103.733 36.2642 103.73 36.61C103.726 36.9573 103.632 37.2976 103.457 37.5975C103.281 37.8973 103.031 38.1463 102.73 38.32V39.04C105.429 39.3289 107.94 40.5618 109.819 42.5213C111.698 44.4807 112.825 47.0408 113 49.75L113.9 50.26C114.208 50.4408 114.453 50.7104 114.605 51.0334C114.757 51.3564 114.807 51.7177 114.75 52.07L114.53 53.37C114.468 53.7212 114.299 54.0448 114.047 54.297C113.795 54.5492 113.471 54.7178 113.12 54.78L112.12 54.92C111.85 55.6007 111.516 56.2538 111.12 56.87C115.279 59.1797 118.735 62.5733 121.12 66.69C121.392 67.1534 121.564 67.6683 121.626 68.2021C121.688 68.7358 121.638 69.2766 121.48 69.79C121.326 70.2872 121.069 70.746 120.724 71.1357C120.379 71.5254 119.955 71.8371 119.48 72.05C117.363 72.9437 115.153 73.5978 112.89 74L114.48 86C116.22 83.9 117.87 81.72 119.4 79.45C126.06 69.48 130.31 57.45 128.73 45.61Z" fill="#D4D4D4"/>
</g>
<g opacity="0.21">
<path opacity="0.21" d="M66.02 30.95L69.14 34.07L72.27 30.95H66.02Z" fill="#D4D4D4"/>
</g>
<g opacity="0.21">
<path opacity="0.21" d="M103.69 84.54C103.61 84.2791 103.446 84.0521 103.224 83.8946C103.001 83.7372 102.732 83.6581 102.46 83.67C102.18 83.6818 101.912 83.7865 101.699 83.9676C101.485 84.1487 101.338 84.3959 101.28 84.67L99.38 96.89C99.263 97.8947 98.8367 98.8382 98.16 99.59V102C100.454 100.252 102.644 98.3718 104.72 96.37L105.72 95.37L103.69 84.54Z" fill="#D4D4D4"/>
</g>
<g opacity="0.21">
<path opacity="0.21" d="M69.1432 34.7753L65.2541 38.6644L69.1432 42.5535L73.0323 38.6644L69.1432 34.7753Z" fill="#D4D4D4"/>
</g>
<g opacity="0.21">
<path opacity="0.21" d="M90.14 89.33L90.51 84.91H87.95V89.33H90.14Z" fill="#D4D4D4"/>
</g>
<path opacity="0.4" fill-rule="evenodd" clip-rule="evenodd" d="M28.32 29C28.32 27.1435 29.0575 25.363 30.3703 24.0503C31.683 22.7375 33.4635 22 35.32 22V0.5C27.26 7.72 21.74 22.24 21.72 38.93C21.72 49.59 23.98 59.32 27.72 66.93C30.1806 66.0924 32.7608 65.6601 35.36 65.65V36C34.4374 36.0053 33.5228 35.8281 32.6689 35.4787C31.815 35.1293 31.0386 34.6145 30.3844 33.9639C29.7301 33.3134 29.2109 32.54 28.8566 31.6881C28.5024 30.8362 28.32 29.9226 28.32 29V29Z" fill="#D4D4D4"/>
<path d="M101.66 59.9C106.66 60 110.78 56.1 110.85 52.46C110.92 48.82 110.36 45.84 101.93 45.68C93.09 45.51 92.83 48.46 92.76 52.11C92.69 55.76 96.66 59.81 101.66 59.9ZM95.15 56.08C94.2007 54.999 93.6625 53.6182 93.63 52.18C93.68 49.99 94.14 48 96.23 47.08C96.93 46.76 97.7 47.7 97.16 48.24C94.75 50.64 94.81 53.19 95.52 55.89C95.5299 55.9295 95.5285 55.971 95.5162 56.0099C95.5038 56.0487 95.4809 56.0834 95.45 56.11C95.4056 56.1441 95.3498 56.16 95.2941 56.1544C95.2383 56.1489 95.1868 56.1222 95.15 56.08V56.08Z" fill="#D4D4D4"/>
<path d="M121.13 66.69C118.745 62.5733 115.289 59.1797 111.13 56.87C111.526 56.2538 111.86 55.6008 112.13 54.92L113.13 54.78C113.481 54.7178 113.805 54.5492 114.057 54.297C114.309 54.0448 114.478 53.7212 114.54 53.37L114.76 52.07C114.817 51.7178 114.767 51.3565 114.615 51.0334C114.463 50.7104 114.218 50.4408 113.91 50.26L113.01 49.75C112.845 47.0399 111.728 44.4752 109.856 42.5084C107.985 40.5415 105.479 39.299 102.78 39V38.28C103.081 38.1063 103.331 37.8573 103.507 37.5575C103.682 37.2576 103.776 36.9173 103.78 36.57C103.783 36.2242 103.696 35.8836 103.528 35.5813C103.36 35.2791 103.117 35.0256 102.821 34.8456C102.526 34.6655 102.189 34.5651 101.844 34.5541C101.498 34.543 101.156 34.6218 100.85 34.7827C100.543 34.9436 100.284 35.1811 100.097 35.472C99.9105 35.7629 99.8022 36.0974 99.7831 36.4426C99.764 36.7879 99.8348 37.1322 99.9885 37.442C100.142 37.7517 100.374 38.0163 100.66 38.21V38.96C97.945 39.1522 95.3856 40.2987 93.4346 42.1966C91.4837 44.0945 90.267 46.6213 90 49.33L89.08 49.8C88.7656 49.9673 88.5093 50.226 88.345 50.5421C88.1808 50.8581 88.1162 51.2165 88.16 51.57L88.34 52.86C88.3828 53.2155 88.5361 53.5486 88.7783 53.8124C89.0205 54.0761 89.3394 54.2572 89.69 54.33L90.69 54.55C91.2843 56.1533 92.227 57.6049 93.45 58.8V58.8L93.1 59C88.87 61.14 83.1 65.56 79.82 74.4V74.55C79.5997 75.1783 79.533 75.8502 79.6255 76.5095C79.718 77.1689 79.9671 77.7964 80.3518 78.3398C80.7366 78.8832 81.2459 79.3265 81.8371 79.6327C82.4283 79.939 83.0842 80.0992 83.75 80.1C84.0285 80.0981 84.3063 80.0713 84.58 80.02C85.2819 79.8727 85.9343 79.5482 86.4752 79.0773C87.0161 78.6064 87.4274 78.0049 87.67 77.33C88.5912 74.7606 89.9852 72.3864 91.78 70.33L90.78 81.76H84.6C84.4674 81.76 84.3402 81.8127 84.2464 81.9064C84.1527 82.0002 84.1 82.1274 84.1 82.26V84.4C84.1 84.5326 84.1527 84.6598 84.2464 84.7535C84.3402 84.8473 84.4674 84.9 84.6 84.9H86.09V89.32H84.6C84.4674 89.32 84.3402 89.3727 84.2464 89.4664C84.1527 89.5602 84.1 89.6874 84.1 89.82V102.5H51.42C51.1919 102.5 50.9732 102.409 50.8119 102.248C50.6506 102.087 50.56 101.868 50.56 101.64C50.56 101.412 50.6506 101.193 50.8119 101.032C50.9732 100.871 51.1919 100.78 51.42 100.78H70.42C70.6764 100.799 70.9339 100.764 71.1765 100.679C71.419 100.594 71.6414 100.46 71.8297 100.285C72.018 100.11 72.1682 99.8977 72.2709 99.6621C72.3736 99.4264 72.4267 99.1721 72.4267 98.915C72.4267 98.6579 72.3736 98.4036 72.2709 98.1679C72.1682 97.9322 72.018 97.7203 71.8297 97.5452C71.6414 97.3702 71.419 97.2359 71.1765 97.1507C70.9339 97.0655 70.6764 97.0312 70.42 97.05H36C35.7866 97.027 35.5893 96.926 35.4459 96.7663C35.3025 96.6066 35.2231 96.3996 35.2231 96.185C35.2231 95.9704 35.3025 95.7633 35.4459 95.6037C35.5893 95.444 35.7866 95.343 36 95.32H62C62.4933 95.32 62.9664 95.124 63.3152 94.7752C63.664 94.4264 63.86 93.9533 63.86 93.46C63.86 92.9667 63.664 92.4936 63.3152 92.1448C62.9664 91.796 62.4933 91.6 62 91.6H38.17C37.9419 91.6 37.7232 91.5094 37.5619 91.3481C37.4006 91.1868 37.31 90.9681 37.31 90.74V90.43H73.69C73.8226 90.43 73.9498 90.3773 74.0435 90.2835C74.1373 90.1898 74.19 90.0626 74.19 89.93V86.93H75.19C75.3226 86.93 75.4498 86.8773 75.5435 86.7835C75.6373 86.6898 75.69 86.5626 75.69 86.43C75.69 86.2974 75.6373 86.1702 75.5435 86.0764C75.4498 85.9827 75.3226 85.93 75.19 85.93H74.19V82.77H75.19C75.3226 82.77 75.4498 82.7173 75.5435 82.6235C75.6373 82.5298 75.69 82.4026 75.69 82.27C75.69 82.1374 75.6373 82.0102 75.5435 81.9164C75.4498 81.8227 75.3226 81.77 75.19 81.77H74.19V30.45C74.2003 30.3837 74.2003 30.3162 74.19 30.25C74.1627 30.1907 74.1255 30.1366 74.08 30.09L73.88 30C73.9021 29.9639 73.9138 29.9223 73.9138 29.88C73.9138 29.8376 73.9021 29.7961 73.88 29.76C73.8492 29.7326 73.8118 29.7136 73.7715 29.7048C73.7313 29.6961 73.6894 29.6979 73.65 29.71L65 21.07C64.9386 21.0112 64.8627 20.9698 64.78 20.95H64.72H47.1C44.79 12.15 40.81 4.76998 35.62 0.129982C35.5298 0.0477665 35.4121 0.00219727 35.29 0.00219727C35.1679 0.00219727 35.0502 0.0477665 34.96 0.129982C26.49 7.71998 21.21 22.59 21.19 38.93C21.2074 42.8539 21.5418 46.7699 22.19 50.64C19.1765 52.7519 16.7137 55.556 15.0084 58.8169C13.3032 62.0777 12.4052 65.7002 12.39 69.38C12.3803 72.2566 12.8989 75.1106 13.92 77.8C13.9645 77.8899 14.0308 77.9672 14.1129 78.0249C14.1951 78.0825 14.2903 78.1187 14.39 78.13C14.4902 78.1301 14.588 78.0994 14.6703 78.0422C14.7525 77.985 14.8152 77.904 14.85 77.81C15.9048 75.1138 17.4837 72.6535 19.4954 70.5714C21.5071 68.4893 23.9116 66.8268 26.57 65.68C26.78 66.16 26.98 66.68 27.21 67.1C27.2604 67.2096 27.3496 67.2967 27.4603 67.3447C27.571 67.3927 27.6955 67.3981 27.81 67.36C28.24 67.22 28.67 67.1 29.1 66.99V68.51L26.53 75.51C26.5003 75.5855 26.4902 75.6673 26.5007 75.7477C26.5112 75.8282 26.5419 75.9046 26.59 75.97C26.6359 76.0359 26.6973 76.0895 26.7688 76.1262C26.8403 76.1628 26.9197 76.1813 27 76.18H43.58C43.6594 76.1864 43.7391 76.1733 43.8123 76.1419C43.8854 76.1106 43.9499 76.0619 44 76C44.0481 75.9346 44.0788 75.8582 44.0893 75.7777C44.0997 75.6973 44.0897 75.6155 44.06 75.54L41.49 68.54V67C41.92 67.11 42.35 67.23 42.78 67.37C42.8328 67.3805 42.8872 67.3805 42.94 67.37C43.0345 67.3681 43.1266 67.34 43.2061 67.2888C43.2856 67.2376 43.3492 67.1653 43.39 67.08C43.61 66.63 43.81 66.14 44.02 65.67C46.6839 66.8143 49.0936 68.4769 51.1091 70.5611C53.1245 72.6452 54.7055 75.1093 55.76 77.81C55.7959 77.9032 55.859 77.9834 55.941 78.0405C56.0229 78.0975 56.1201 78.1287 56.22 78.13C56.3228 78.1299 56.423 78.0982 56.5071 78.0392C56.5912 77.9801 56.6551 77.8966 56.69 77.8C57.7117 75.1108 58.2303 72.2567 58.22 69.38C58.2009 65.702 57.3024 62.0819 55.5993 58.8219C53.8962 55.5618 51.4381 52.7565 48.43 50.64C49.0785 46.77 49.413 42.8539 49.43 38.93C49.4235 36.2572 49.2733 33.5867 48.98 30.93H64.13V81.77H16.58C16.4474 81.77 16.3202 81.8227 16.2264 81.9164C16.1327 82.0102 16.08 82.1374 16.08 82.27C16.08 82.4026 16.1327 82.5298 16.2264 82.6235C16.3202 82.7173 16.4474 82.77 16.58 82.77H18.92V85.93H16.58C16.4474 85.93 16.3202 85.9827 16.2264 86.0764C16.1327 86.1702 16.08 86.2974 16.08 86.43C16.08 86.5626 16.1327 86.6898 16.2264 86.7835C16.3202 86.8773 16.4474 86.93 16.58 86.93H18.92V89.93C18.92 90.0626 18.9727 90.1898 19.0664 90.2835C19.1602 90.3773 19.2874 90.43 19.42 90.43H36.31V90.74C36.31 91.2333 36.506 91.7064 36.8548 92.0552C37.2036 92.404 37.6767 92.6 38.17 92.6H61.94C62.1681 92.6 62.3868 92.6906 62.5481 92.8519C62.7094 93.0132 62.8 93.2319 62.8 93.46C62.8 93.6881 62.7094 93.9068 62.5481 94.0681C62.3868 94.2294 62.1681 94.32 61.94 94.32H36C35.529 94.3545 35.0884 94.566 34.7669 94.9119C34.4454 95.2579 34.2666 95.7127 34.2666 96.185C34.2666 96.6573 34.4454 97.1121 34.7669 97.458C35.0884 97.804 35.529 98.0155 36 98.05H70.42C70.5414 98.0369 70.6642 98.0495 70.7804 98.0871C70.8966 98.1246 71.0036 98.1861 71.0945 98.2677C71.1853 98.3493 71.258 98.4491 71.3077 98.5606C71.3574 98.6721 71.3831 98.7929 71.3831 98.915C71.3831 99.0371 71.3574 99.1578 71.3077 99.2693C71.258 99.3809 71.1853 99.4807 71.0945 99.5623C71.0036 99.6439 70.8966 99.7054 70.7804 99.7429C70.6642 99.7804 70.5414 99.7931 70.42 99.78H51.42C50.9267 99.78 50.4536 99.976 50.1048 100.325C49.756 100.674 49.56 101.147 49.56 101.64C49.56 102.133 49.756 102.606 50.1048 102.955C50.4536 103.304 50.9267 103.5 51.42 103.5H84.1V104.5C84.1026 104.632 84.1561 104.757 84.2493 104.851C84.3425 104.944 84.4682 104.997 84.6 105H97.66C97.7918 104.997 97.9175 104.944 98.0107 104.851C98.1039 104.757 98.1574 104.632 98.16 104.5V99.58C98.8367 98.8282 99.263 97.8847 99.38 96.88L101.28 84.66C101.338 84.3859 101.485 84.1387 101.698 83.9576C101.912 83.7765 102.18 83.6718 102.46 83.66C102.732 83.6481 103.001 83.7271 103.224 83.8846C103.446 84.0421 103.61 84.2691 103.69 84.53L106.1 97.45C106.298 98.5909 106.891 99.6255 107.777 100.372C108.662 101.118 109.782 101.528 110.94 101.53C111.225 101.528 111.509 101.501 111.79 101.45C113.071 101.225 114.21 100.503 114.96 99.4402C115.709 98.3778 116.008 97.0618 115.79 95.78L112.89 74C115.158 73.6089 117.375 72.9649 119.5 72.08C119.975 71.8671 120.399 71.5554 120.744 71.1657C121.089 70.776 121.346 70.3172 121.5 69.82C121.661 69.3015 121.712 68.7549 121.648 68.2156C121.584 67.6764 121.408 67.1566 121.13 66.69V66.69ZM73.16 31V38.13L69.5 34.42L73 31H73.16ZM73 38.67L69.11 42.56L65.22 38.67L69.11 34.78L73 38.67ZM66 31H72.25L69.12 34.12L66 31ZM73 47.2L69.11 51.1L65.22 47.2L69.11 43.31L73 47.2ZM73 55.69L69.11 59.58L65.22 55.69L69.11 51.8L73 55.69ZM73 64.18L69.14 68L65.25 64.11L69.14 60.22L73 64.18ZM73 72.67L69.11 76.56L65.22 72.67L69.11 68.78L73 72.67ZM73.13 73.25V80.57L69.5 76.86L73.13 73.25ZM69.5 68.38L73.16 64.72V72L69.5 68.38ZM69.5 59.89L73.16 56.23V63.55L69.5 59.89ZM69.5 51.4L73.16 47.74V55.06L69.5 51.4ZM69.5 42.91L73.16 39.25V46.57L69.5 42.91ZM72.5 29.91H65.5L69 26.46L72.5 29.91ZM65.18 22.59L68.66 26.07L65.18 29.55V22.59ZM65.18 30.91H65.36L68.84 34.38L65.18 38.04V30.91ZM65.18 39.21L68.84 42.87L65.18 46.53V39.21ZM65.18 47.7L68.84 51.36L65.18 55.02V47.7ZM65.18 56.19L68.84 59.85L65.18 63.51V56.19ZM65.18 64.68L68.84 68.34L65.13 72L65.18 64.68ZM65.18 73.16L68.84 76.82L65.18 80.48V73.16ZM65.18 81.16L69.18 77.16L73.18 81.16V81.7H65.18V81.16ZM65.18 82.7H73.24V85.86H65.13L65.18 82.7ZM63.78 21.92L60.12 25.58L56.46 21.92H63.78ZM55.29 21.92L51.63 25.58L48 21.92H55.29ZM35.29 1.17998C39.29 4.92998 42.6 10.42 44.87 16.95H25.71C28 10.42 31.25 4.92998 35.29 1.17998V1.17998ZM14.4 76.23C12.9924 71.8325 12.9995 67.1042 14.4203 62.7109C15.8411 58.3176 18.604 54.4806 22.32 51.74C22.41 52.28 22.54 52.74 22.64 53.32C22.71 53.63 22.77 53.94 22.84 54.25C23.02 55.07 23.21 55.87 23.42 56.67C23.52 57.06 23.62 57.45 23.73 57.83C23.91 58.46 24.1 59.08 24.3 59.7C24.5 60.32 24.64 60.79 24.83 61.33C25.02 61.87 25.11 62.1 25.26 62.49C25.53 63.21 25.8 63.92 26.09 64.62L26.15 64.76C20.9463 66.9937 16.7586 71.0817 14.4 76.23V76.23ZM30.68 75.23H30.17L31.51 69.12H32L30.68 75.23ZM30.1 68.1V66.73L30.77 66.59V68.1H30.1ZM32.19 68.1H31.27V66.49L32.19 66.34V68.1ZM33.92 75.21H33.42L33.86 69.1H34.37L33.92 75.21ZM32.69 68.1V66.28C33 66.28 33.31 66.2 33.62 66.18V68.1H32.69ZM35.04 68.1H34.12V66.16C34.43 66.16 34.73 66.16 35.04 66.16V68.1ZM36.66 75.21L36.22 69.1H36.72L37.16 75.21H36.66ZM35.54 68.1V66.1C35.85 66.1 36.16 66.1 36.46 66.1V68.1H35.54ZM37.89 68.1H37V66.18C37.31 66.18 37.62 66.25 37.93 66.28L37.89 68.1ZM39.89 75.21L38.56 69.1H39.07L40.41 75.21H39.89ZM38.39 68.1V66.34L39.31 66.49V68.1H38.39ZM40.48 68.1H39.81V66.59L40.48 66.73V68.1ZM43.34 64.72C43.12 65.24 42.91 65.72 42.67 66.28C37.8771 64.7201 32.7129 64.7201 27.92 66.28C27.63 65.68 27.38 65.06 27.11 64.44C26.84 63.82 26.47 62.88 26.17 62.08L25.78 61C25.55 60.34 25.34 59.68 25.13 59C24.92 58.32 24.8 57.93 24.65 57.39C24.5 56.85 24.38 56.39 24.25 55.85C24.08 55.16 23.91 54.47 23.76 53.76C23.67 53.35 23.59 52.93 23.51 52.52C22.6414 48.0352 22.1994 43.4781 22.19 38.91C22.1571 31.6166 23.2915 24.3649 25.55 17.43H45C47.2585 24.3649 48.3929 31.6166 48.36 38.91C48.3635 43.2494 47.9752 47.5803 47.2 51.85C47.06 52.59 46.92 53.32 46.76 54.05C46.66 54.49 46.55 54.93 46.45 55.37C46.26 56.15 46.06 56.93 45.85 57.69C45.76 58.01 45.66 58.32 45.56 58.69C45.29 59.59 45.01 60.47 44.7 61.34L44.52 61.84C44.15 62.79 43.76 63.77 43.34 64.72ZM57.22 69.39C57.2394 71.7078 56.9021 74.0148 56.22 76.23C53.8461 71.0784 49.6449 66.9912 44.43 64.76C44.81 63.85 45.17 62.91 45.52 61.96L45.67 61.56C45.94 60.79 46.19 60 46.44 59.2L46.77 58.1C46.95 57.47 47.12 56.82 47.28 56.17C47.44 55.52 47.55 55.1 47.67 54.55C47.79 54 47.92 53.41 48.03 52.83C48.1 52.46 48.19 52.11 48.25 51.74C51.0169 53.7797 53.2689 56.4377 54.8263 59.5022C56.3837 62.5666 57.2034 65.9526 57.22 69.39V69.39ZM47.39 22.05L51.28 25.93L48.64 28.57C48.333 26.3771 47.9158 24.201 47.39 22.05V22.05ZM48.84 30C48.84 29.74 48.76 29.49 48.73 29.24L51.63 26.34L55.29 30H48.84ZM51.98 26L55.87 22L59.76 25.89L55.87 29.78L51.98 26ZM56.46 30L60.12 26.34L63.78 30H56.46ZM60.46 26L64.12 22.34V29.66L60.46 26ZM56.09 82.77H64.09V85.93H56.09V82.77ZM47.09 82.77H55.09V85.93H47.09V82.77ZM38.09 82.77H46.09V85.93H38L38.09 82.77ZM28 85.93H20V82.77H28V85.93ZM37 85.93H29V82.77H37V85.93ZM101.05 41.44L101.12 38.44C101.337 38.521 101.568 38.5616 101.8 38.56C101.966 38.5587 102.132 38.5317 102.29 38.48L102.22 41.48C102.225 41.5386 102.211 41.5972 102.18 41.6474C102.15 41.6977 102.104 41.7371 102.05 41.76C101.918 41.8182 101.773 41.844 101.629 41.8353C101.485 41.8266 101.344 41.7837 101.22 41.71C101.171 41.6889 101.128 41.6542 101.098 41.6099C101.068 41.5656 101.051 41.5136 101.05 41.46V41.44ZM90.91 50.64C90.8805 47.9715 91.8624 45.3909 93.6582 43.417C95.4541 41.443 97.9307 40.2222 100.59 40V41.46C100.588 41.6003 100.625 41.7385 100.695 41.86C100.766 41.9814 100.867 42.0816 100.99 42.15C101.214 42.2823 101.47 42.3514 101.73 42.35C101.938 42.3521 102.144 42.3041 102.33 42.21C102.46 42.1432 102.57 42.0414 102.646 41.916C102.722 41.7906 102.761 41.6466 102.76 41.5V40.04C104.776 40.2861 106.679 41.108 108.241 42.4073C109.802 43.7066 110.956 45.4284 111.564 47.3665C112.173 49.3045 112.21 51.3769 111.671 53.3355C111.132 55.294 110.04 57.0559 108.526 58.4102C107.012 59.7645 105.14 60.6538 103.134 60.9718C101.128 61.2898 99.0723 61.0229 97.2138 60.2032C95.3552 59.3834 93.7722 58.0454 92.6543 56.3494C91.5363 54.6534 90.9307 52.6712 90.91 50.64V50.64ZM85.1 83.91V82.77H97.16V83.91H85.1ZM95.67 84.91V89.33H94.81V84.91H95.67ZM94.31 84.91V89.33H91.15L91.52 84.91H94.31ZM90.51 84.91L90.14 89.33H88V84.91H90.51ZM87.45 84.91V89.33H86.59V84.91H87.45ZM97.16 103.91H85.1V90.33H97.16V103.91ZM120.53 69.44C120.419 69.8021 120.233 70.1365 119.983 70.421C119.733 70.7055 119.425 70.9335 119.08 71.09C116.29 72.2112 113.365 72.9642 110.38 73.33C110.503 73.1037 110.594 72.8614 110.65 72.61C110.909 71.399 110.815 70.1393 110.38 68.98L110.44 68.92C110.563 68.7262 110.641 68.5076 110.67 68.28V67.26C110.67 67.26 110.67 67.21 110.67 67.18C110.67 67.15 110.67 67.09 110.67 67.04C110.67 66.99 110.67 67.04 110.67 67.04C111.511 66.9358 112.346 66.7856 113.17 66.59C113.303 66.5568 113.417 66.4724 113.487 66.3551C113.557 66.2379 113.578 66.0976 113.545 65.965C113.512 65.8324 113.427 65.7184 113.31 65.648C113.193 65.5777 113.053 65.5568 112.92 65.59C112.462 65.7037 111.998 65.7938 111.53 65.86C111.22 65.44 110.88 64.97 110.53 64.51C110.491 64.4517 110.441 64.4021 110.382 64.3645C110.323 64.3269 110.257 64.302 110.188 64.2915C110.119 64.2811 110.048 64.2852 109.981 64.3037C109.913 64.3222 109.851 64.3546 109.796 64.3989C109.742 64.4432 109.698 64.4983 109.667 64.5608C109.635 64.6232 109.617 64.6915 109.614 64.7614C109.61 64.8312 109.621 64.901 109.647 64.9662C109.672 65.0314 109.71 65.0906 109.76 65.14C110 65.44 110.23 65.74 110.44 66.03H110.09L109.9 66C109.747 65.8786 109.583 65.7715 109.41 65.68C109.278 65.6099 109.141 65.5497 109 65.5V65.5C108.617 65.3061 108.185 65.2293 107.758 65.279C107.331 65.3288 106.928 65.503 106.6 65.78C106.523 65.8784 106.466 65.9903 106.43 66.11C106.425 66.1766 106.425 66.2434 106.43 66.31C106.424 66.3431 106.424 66.3769 106.43 66.41V66.47H105.99C104.92 66.5327 103.916 67.0048 103.185 67.7882C102.454 68.5717 102.053 69.6065 102.064 70.6779C102.076 71.7493 102.499 72.7752 103.247 73.5426C103.995 74.3101 105.009 74.7604 106.08 74.8H106.31C108.211 74.7111 110.105 74.5041 111.98 74.18L114.89 95.97C115.024 96.7343 114.928 97.5212 114.614 98.231C114.3 98.9407 113.783 99.5414 113.128 99.9569C112.472 100.372 111.708 100.584 110.933 100.565C110.157 100.546 109.404 100.297 108.77 99.85C108.346 99.5555 107.985 99.179 107.708 98.7428C107.432 98.3065 107.245 97.8194 107.16 97.31L104.75 84.31C104.613 83.8245 104.317 83.3991 103.909 83.1021C103.502 82.805 103.006 82.6536 102.502 82.6721C101.998 82.6905 101.515 82.8778 101.13 83.2038C100.745 83.5299 100.481 83.9758 100.38 84.47L98.39 96.75C98.3489 97.0677 98.2717 97.3797 98.16 97.68V89.83C98.16 89.6974 98.1073 89.5702 98.0135 89.4764C97.9198 89.3827 97.7926 89.33 97.66 89.33H96.17V84.91H97.66C97.7926 84.91 97.9198 84.8573 98.0135 84.7635C98.1073 84.6698 98.16 84.5426 98.16 84.41V82.27C98.16 82.1374 98.1073 82.0102 98.0135 81.9164C97.9198 81.8227 97.7926 81.77 97.66 81.77H91.78L92.78 69.22C93.04 68.98 93.29 68.74 93.56 68.52C93.6105 68.478 93.6523 68.4264 93.683 68.3682C93.7136 68.31 93.7325 68.2464 93.7385 68.1809C93.7445 68.1155 93.7376 68.0495 93.7181 67.9867C93.6987 67.9239 93.667 67.8655 93.625 67.815C93.583 67.7644 93.5314 67.7226 93.4732 67.692C93.4151 67.6614 93.3514 67.6425 93.286 67.6365C93.2205 67.6304 93.1545 67.6374 93.0917 67.6568C93.0289 67.6763 92.9705 67.708 92.92 67.75C92.6 68.02 92.29 68.3 91.98 68.6C89.6016 70.9638 87.7896 73.8356 86.68 77C86.4034 77.7848 85.8274 78.4283 85.078 78.7899C84.3285 79.1515 83.4665 79.2019 82.68 78.93C81.895 78.6532 81.2509 78.0778 80.8876 77.3288C80.5244 76.5799 80.4713 75.7178 80.74 74.93L80.79 74.81C84 66.17 89.48 61.91 93.55 59.85L94.23 59.52C96.2794 61.1835 98.8405 62.0878 101.48 62.08H101.64C103.358 62.0571 105.05 61.6511 106.591 60.8917C108.132 60.1322 109.485 59.0384 110.55 57.69C114.597 59.9096 117.957 63.1996 120.26 67.2C120.463 67.5414 120.592 67.9217 120.639 68.3162C120.685 68.7108 120.648 69.1107 120.53 69.49V69.44ZM107.6 69.01C107.862 69.1396 108.137 69.2402 108.42 69.31C108.79 70.46 108.88 72.61 108.04 73.6L106.19 73.72H106.08C105.52 73.7394 104.965 73.6087 104.473 73.3415C103.981 73.0742 103.569 72.6801 103.28 72.2C102.995 71.7224 102.84 71.1784 102.83 70.6222C102.821 70.066 102.958 69.5171 103.227 69.0303C103.496 68.5435 103.889 68.1358 104.365 67.848C104.841 67.5602 105.384 67.4022 105.94 67.39H106.35C106.39 67.7547 106.527 68.1021 106.747 68.3959C106.967 68.6896 107.261 68.919 107.6 69.06V69.01ZM107.83 67.49C107.6 67.3902 107.393 67.2448 107.221 67.0626C107.049 66.8804 106.916 66.6652 106.83 66.43V66.3C106.833 66.1906 106.872 66.0853 106.94 66C106.98 65.9465 107.031 65.9021 107.09 65.87V65.87L107.26 65.79H107.33H107.52H107.83C108.036 65.7883 108.241 65.8153 108.44 65.87V65.87C108.673 65.9303 108.898 66.0176 109.11 66.13C109.247 66.205 109.378 66.292 109.5 66.39H109.55C109.646 66.4629 109.733 66.5468 109.81 66.64V66.64C109.877 66.7229 109.934 66.8135 109.98 66.91C109.98 66.91 109.98 66.91 109.98 66.91C110.008 66.9945 110.028 67.0816 110.04 67.17C110.045 67.2882 110.01 67.4046 109.94 67.5C109.627 67.7027 109.264 67.8139 108.891 67.8209C108.518 67.828 108.15 67.7307 107.83 67.54V67.49ZM109.12 70.27C109.099 70.0648 109.065 69.8611 109.02 69.66L110.02 69.56C110.079 69.7568 110.126 69.9572 110.16 70.16L109.12 70.27ZM110.23 70.4C110.23 70.6 110.23 70.81 110.29 71.01L109.19 71.12C109.19 70.92 109.19 70.71 109.19 70.51L110.23 70.4ZM108.97 69.4C108.97 69.23 108.88 69.09 108.83 68.95C108.83 68.95 108.83 68.89 108.83 68.87L109.83 68.8C109.916 68.9562 109.986 69.1203 110.04 69.29L108.97 69.4ZM108.91 73.06L110 73C109.928 73.1562 109.834 73.301 109.72 73.43C109.38 73.4833 109.047 73.5233 108.72 73.55C108.794 73.4149 108.857 73.2745 108.91 73.13V73.06ZM108.99 72.8C109.042 72.6126 109.082 72.4223 109.11 72.23L110.24 72.1C110.24 72.23 110.24 72.35 110.17 72.47C110.1 72.59 110.17 72.62 110.1 72.7L108.99 72.8ZM109.16 71.97C109.16 71.76 109.16 71.55 109.16 71.35L110.26 71.23C110.27 71.4299 110.27 71.6301 110.26 71.83L109.16 71.97Z" fill="#D4D4D4"/>
<path d="M84.34 77.45C83.96 77.52 83.7 77.76 83.74 77.98C83.78 78.2 84.13 78.32 84.5 78.24C84.87 78.16 85.15 77.92 85.1 77.7C85.05 77.48 84.72 77.37 84.34 77.45Z" fill="#D4D4D4"/>
<path d="M98.2359 64.8956L96.4467 64.9499C96.0438 64.9622 95.727 65.2988 95.7392 65.7018L95.7936 67.4909C95.8058 67.8939 96.1424 68.2107 96.5454 68.1984L98.3346 68.1441C98.7376 68.1318 99.0543 67.7952 99.0421 67.3923L98.9877 65.6031C98.9755 65.2001 98.6389 64.8833 98.2359 64.8956Z" fill="#D4D4D4"/>
<path d="M107.85 66.16C107.827 66.1842 107.814 66.2164 107.814 66.25C107.814 66.2835 107.827 66.3158 107.85 66.34L108.32 66.84C108.349 66.8476 108.38 66.8476 108.41 66.84L109.52 66.92C109.535 66.9214 109.551 66.9196 109.565 66.9147C109.58 66.9098 109.593 66.9019 109.604 66.8915C109.616 66.8812 109.625 66.8686 109.631 66.8545C109.637 66.8405 109.64 66.8253 109.64 66.81C109.643 66.794 109.642 66.7775 109.638 66.7617C109.634 66.746 109.626 66.7314 109.616 66.7189C109.605 66.7065 109.592 66.6965 109.577 66.6898C109.562 66.6831 109.546 66.6797 109.53 66.68L108.46 66.59L108.02 66.13C107.993 66.1133 107.961 66.1072 107.929 66.1127C107.898 66.1182 107.87 66.1351 107.85 66.16V66.16Z" fill="#D4D4D4"/>
<path d="M35.29 22C33.9055 22 32.5521 22.4105 31.401 23.1797C30.2498 23.9489 29.3526 25.0421 28.8228 26.3212C28.293 27.6003 28.1544 29.0078 28.4245 30.3656C28.6946 31.7235 29.3613 32.9708 30.3402 33.9497C31.3192 34.9287 32.5665 35.5954 33.9243 35.8655C35.2822 36.1356 36.6897 35.997 37.9688 35.4672C39.2478 34.9373 40.3411 34.0401 41.1103 32.889C41.8794 31.7378 42.29 30.3845 42.29 29C42.29 27.1435 41.5525 25.363 40.2397 24.0503C38.927 22.7375 37.1465 22 35.29 22ZM35.29 33.93C34.3011 33.93 33.3344 33.6368 32.5121 33.0873C31.6899 32.5379 31.049 31.757 30.6706 30.8434C30.2921 29.9298 30.1931 28.9245 30.3861 27.9545C30.579 26.9846 31.0552 26.0937 31.7544 25.3945C32.4537 24.6952 33.3446 24.219 34.3145 24.0261C35.2844 23.8331 36.2898 23.9322 37.2034 24.3106C38.117 24.689 38.8979 25.3299 39.4473 26.1521C39.9967 26.9744 40.29 27.9411 40.29 28.93C40.2993 29.5925 40.1768 30.2502 39.9297 30.8649C39.6825 31.4797 39.3157 32.0391 38.8505 32.5109C38.3853 32.9826 37.8309 33.3572 37.2197 33.6128C36.6085 33.8685 35.9525 34.0001 35.29 34V33.93Z" fill="#D4D4D4"/>
</g>
<defs>
<clipPath id="clip0">
<rect width="129.06" height="116.12" fill="white"/>
</clipPath>
</defs>
</svg>
